<svg xmlns="http://www.w3.org/2000/svg" width="15" height="13" viewBox="0 0 15 13">
  <defs>
    <style>
      .cls-1 {
        fill: #6a6a6a;
      }
    </style>
  </defs>
  <path id="mini_play" class="cls-1" d="M167.25,742l6.5,4.5-6.5,4.5v-9m0-3a3.479,3.479,0,0,0-1.453.317A2.984,2.984,0,0,0,164,742v9a2.986,2.986,0,0,0,1.8,2.683,3.479,3.479,0,0,0,1.453.317,3.426,3.426,0,0,0,1.95-.6l6.5-4.5a2.865,2.865,0,0,0,0-4.8l-6.5-4.5a3.426,3.426,0,0,0-1.95-.6Z" transform="translate(754 -164) rotate(90)"/>
</svg>
