<svg xmlns="http://www.w3.org/2000/svg" width="12" height="16" viewBox="0 0 12 16">
  <defs>
    <style>
      .cls-1 {
        fill: #6d6d6d;
      }
    </style>
  </defs>
  <path id="paint_brush" class="cls-1" d="M588,544h-8a2.006,2.006,0,0,0-2,2v6a3.992,3.992,0,0,0,3.01,3.87.57.57,0,0,0-.01.13v1.18a2.817,2.817,0,0,0,2.82,2.82h.36a2.817,2.817,0,0,0,2.82-2.82V556a.57.57,0,0,0-.01-.13A3.992,3.992,0,0,0,590,552v-6A2.006,2.006,0,0,0,588,544Zm-3,13.18a.824.824,0,0,1-.82.82h-.36a.824.824,0,0,1-.82-.82V556h2Zm1-3.18h-4a2.006,2.006,0,0,1-2-2h8A2.006,2.006,0,0,1,586,554Zm2-4h-8v-3.5a.5.5,0,0,1,1,0V548a1,1,0,0,0,2,0v-1.5a.5.5,0,0,1,1,0v.5a1,1,0,0,0,2,0v-.5a.5.5,0,0,1,.5-.5h1a.5.5,0,0,1,.5.5Z" transform="translate(-578 -544)"/>
</svg>
